<svg width="10" height="13" viewBox="0 0 10 13" fill="none" xmlns="http://www.w3.org/2000/svg">
<mask id="mask0_4_88" style="mask-type:luminance" maskUnits="userSpaceOnUse" x="0" y="0" width="10" height="13">
<path d="M10 0H0V13H10V0Z" fill="white"/>
</mask>
<g mask="url(#mask0_4_88)">
<path d="M5 6.5C5 6.07148 5.14664 5.65256 5.42132 5.29628C5.69604 4.93995 6.08648 4.66224 6.54328 4.49824C7.00012 4.33428 7.50276 4.29138 7.98772 4.37498C8.47268 4.45855 8.91812 4.66492 9.26776 4.96795C9.6174 5.27093 9.85548 5.65703 9.95196 6.07729C10.0484 6.4976 9.99892 6.93322 9.80968 7.32915C9.62048 7.72504 9.30004 8.06345 8.88892 8.30151C8.4778 8.53957 7.99444 8.66665 7.5 8.66665C6.83696 8.66665 6.20108 8.43838 5.73224 8.03205C5.2634 7.62571 5 7.07464 5 6.5Z" fill="#1ABCFE"/>
<path d="M0 10.8334C0 10.2587 0.263392 9.70759 0.732232 9.30126C1.20107 8.89493 1.83696 8.66666 2.5 8.66666H5V10.8334C5 11.408 4.7366 11.9591 4.26776 12.3654C3.79893 12.7717 3.16304 13 2.5 13C1.83696 13 1.20107 12.7717 0.732232 12.3654C0.263392 11.9591 0 11.408 0 10.8334Z" fill="#0ACF83"/>
<path d="M5 0V4.33335H7.5C8.16304 4.33335 8.79892 4.10508 9.26776 3.69873C9.7366 3.2924 10 2.7413 10 2.16667C10 1.59203 9.7366 1.04093 9.26776 0.634603C8.79892 0.228273 8.16304 0 7.5 0H5Z" fill="#FF7262"/>
<path d="M0 2.16667C0 2.7413 0.263392 3.2924 0.732232 3.69873C1.20107 4.10508 1.83696 4.33335 2.5 4.33335H5V0H2.5C1.83696 0 1.20107 0.228273 0.732232 0.634603C0.263392 1.04093 0 1.59203 0 2.16667Z" fill="#F24E1E"/>
<path d="M0 6.5C0 7.07464 0.263392 7.62572 0.732232 8.03205C1.20107 8.43838 1.83696 8.66665 2.5 8.66665H5V4.33334H2.5C1.83696 4.33334 1.20107 4.56162 0.732232 4.96795C0.263392 5.37428 0 5.92536 0 6.5Z" fill="#A259FF"/>
</g>
</svg>
