<svg width="32" height="32" viewBox="0 0 32 32" fill="none" xmlns="http://www.w3.org/2000/svg">
<g clip-path="url(#clip0_2_22)">
<path d="M30.8445 10.7347C30.1478 9.11414 28.7377 7.36392 27.6291 6.80968C28.4176 8.28787 28.9645 9.87545 29.2502 11.5158C29.2494 11.5245 29.2494 11.5331 29.2502 11.5418C27.4382 7.17268 24.3668 5.40949 21.8581 1.57196C21.7308 1.37749 21.6035 1.18625 21.4796 0.978818C21.4093 0.862136 21.3523 0.755178 21.3021 0.654702C21.1988 0.46116 21.119 0.256682 21.0643 0.0453617C21.0644 0.0352242 21.0607 0.0253858 21.054 0.0176464C21.0472 0.00990702 21.0378 0.00479387 21.0274 0.00323486H20.9906C16.9713 2.27205 15.6014 6.505 15.4742 8.615C13.8666 8.72141 12.3294 9.29405 11.063 10.2583C10.9305 10.1494 10.7918 10.0477 10.6477 9.9536C10.2831 8.71714 10.2681 7.40867 10.6042 6.16468C9.12657 6.85755 7.8138 7.83983 6.74902 9.04931C6.11263 8.27143 6.15952 5.70119 6.19302 5.15992C6.0058 5.23299 5.82726 5.32536 5.66047 5.43542C5.09939 5.82188 4.57483 6.25574 4.09296 6.73188C3.54476 7.2696 3.04396 7.85071 2.59578 8.46915C1.56547 9.88181 0.834619 11.478 0.445477 13.1656L0.425381 13.2693C0.395237 13.4054 0.288056 14.0893 0.26796 14.2417V14.2773C0.126099 14.9832 0.0376608 15.6982 0.00335569 16.4165V16.4943C-0.0112429 20.3878 1.48869 24.144 4.20499 27.0163C6.92128 29.8886 10.655 31.6667 14.664 31.9971C18.673 32.3275 22.6637 31.1859 25.8428 28.7994C29.0219 26.4129 31.1565 22.9562 31.8225 19.1164C31.8493 18.9187 31.8727 18.7177 31.8962 18.5168C32.2253 15.8806 31.8684 13.2067 30.8579 10.738L30.8445 10.7347ZM12.3793 22.8696L12.6004 22.9766L12.3693 22.8631L12.3793 22.8696Z" fill="url(#paint0_linear_2_22)"/>
<path d="M30.8445 10.7347C30.1478 9.11415 28.7377 7.36393 27.6291 6.80969C28.4176 8.28788 28.9645 9.87547 29.2502 11.5159V11.5483C30.7607 15.5155 29.9368 19.5474 28.7511 22.0107C26.9157 25.8223 22.471 29.7312 15.5143 29.54C8.00503 29.3325 1.38331 23.9327 0.144035 16.867C-0.0803736 15.752 0.144034 15.1849 0.257913 14.2741C0.103157 14.9778 0.0168163 15.694 1.40183e-05 16.4133V16.491C-0.0145846 20.3845 1.48534 24.1408 4.20164 27.0131C6.91793 29.8854 10.6517 31.6635 14.6607 31.9939C18.6697 32.3242 22.6604 31.1827 25.8394 28.7962C29.0185 26.4097 31.1532 22.9529 31.8191 19.1131C31.8459 18.9154 31.8694 18.7145 31.8928 18.5135C32.2178 15.8766 31.8574 13.2028 30.8445 10.7347Z" fill="url(#paint1_radial_2_22)"/>
<path d="M30.8445 10.7347C30.1478 9.11415 28.7377 7.36393 27.6291 6.80969C28.4176 8.28788 28.9645 9.87547 29.2502 11.5159V11.5483C30.7607 15.5155 29.9368 19.5474 28.7511 22.0107C26.9157 25.8223 22.471 29.7312 15.5143 29.54C8.00503 29.3325 1.38331 23.9327 0.144035 16.867C-0.0803736 15.752 0.144034 15.1849 0.257913 14.2741C0.103157 14.9778 0.0168163 15.694 1.40183e-05 16.4133V16.491C-0.0145846 20.3845 1.48534 24.1408 4.20164 27.0131C6.91793 29.8854 10.6517 31.6635 14.6607 31.9939C18.6697 32.3242 22.6604 31.1827 25.8394 28.7962C29.0185 26.4097 31.1532 22.9529 31.8191 19.1131C31.8459 18.9154 31.8694 18.7145 31.8928 18.5135C32.2178 15.8766 31.8574 13.2028 30.8445 10.7347Z" fill="url(#paint2_radial_2_22)"/>
<path d="M23.0605 12.5563L23.161 12.6276C22.7592 11.9363 22.2585 11.3035 21.6739 10.7477C16.6933 5.92809 20.3676 0.298192 21.004 0.01297C16.9847 2.28178 15.6148 6.51473 15.4875 8.62473C15.6751 8.62473 15.8593 8.59556 16.0503 8.59556C17.4805 8.59574 18.8851 8.96303 20.1207 9.65998C21.3564 10.3569 22.3789 11.3586 23.084 12.5628L23.0605 12.5563Z" fill="url(#paint3_radial_2_22)"/>
<path d="M16.0502 13.5189C16.0234 13.9046 14.6167 15.2335 14.1243 15.2335C9.56918 15.2335 8.82896 17.9009 8.82896 17.9009C9.02993 20.1471 10.6477 21.9978 12.6037 22.9766L12.8717 23.0998C13.0291 23.1646 13.1865 23.2294 13.3439 23.2878C14.0146 23.5162 14.7168 23.6462 15.4273 23.6735C23.4122 24.0365 24.9596 14.4361 19.1986 11.6455C20.5576 11.4748 21.9338 11.7982 23.0605 12.553C22.3555 11.3489 21.3329 10.3472 20.0973 9.65026C18.8616 8.95332 17.457 8.58602 16.0268 8.58585C15.8359 8.58585 15.6517 8.58584 15.4641 8.61502C13.8573 8.723 12.3213 9.29675 11.0563 10.2615C11.3008 10.4625 11.5755 10.7283 12.1583 11.2825C13.2468 12.3229 16.0368 13.3925 16.0402 13.5189H16.0502Z" fill="url(#paint4_radial_2_22)"/>
<path d="M16.0502 13.5189C16.0234 13.9046 14.6167 15.2335 14.1243 15.2335C9.56918 15.2335 8.82896 17.9009 8.82896 17.9009C9.02993 20.1471 10.6477 21.9978 12.6037 22.9766L12.8717 23.0998C13.0291 23.1646 13.1865 23.2294 13.3439 23.2878C14.0146 23.5162 14.7168 23.6462 15.4273 23.6735C23.4122 24.0365 24.9596 14.4361 19.1986 11.6455C20.5576 11.4748 21.9338 11.7982 23.0605 12.553C22.3555 11.3489 21.3329 10.3472 20.0973 9.65026C18.8616 8.95332 17.457 8.58602 16.0268 8.58585C15.8359 8.58585 15.6517 8.58584 15.4641 8.61502C13.8573 8.723 12.3213 9.29675 11.0563 10.2615C11.3008 10.4625 11.5755 10.7283 12.1583 11.2825C13.2468 12.3229 16.0368 13.3925 16.0402 13.5189H16.0502Z" fill="url(#paint5_radial_2_22)"/>
<path d="M10.3061 9.74618L10.641 9.95686C10.2764 8.7204 10.2614 7.41193 10.5975 6.16794C9.11987 6.86081 7.80709 7.84309 6.74231 9.05257C6.816 9.05257 9.14048 9.01044 10.3094 9.74618H10.3061Z" fill="url(#paint6_radial_2_22)"/>
<path d="M0.147374 16.867C1.3833 23.9327 8.00502 29.3325 15.521 29.54C22.4777 29.7312 26.9089 25.8223 28.7578 22.0107C29.9435 19.5474 30.7674 15.5284 29.2569 11.5483V11.5191C29.2559 11.5277 29.2559 11.5364 29.2569 11.545C29.8263 15.1362 27.9372 18.614 24.9864 20.9671V20.9865C19.2355 25.5242 13.7358 23.7188 12.6205 22.9863L12.3894 22.8729C9.03998 21.3236 7.65333 18.3677 7.94808 15.8331C7.15239 15.8441 6.37048 15.6316 5.69698 15.2215C5.02347 14.8113 4.48726 14.2211 4.15323 13.5221C5.03301 12.9993 6.03679 12.7039 7.06839 12.6642C8.1 12.6244 9.12486 12.8417 10.0448 13.2952C11.9461 14.1323 14.1109 14.2138 16.0737 13.5221C16.0737 13.3957 13.2803 12.3229 12.1917 11.2857C11.6123 10.7315 11.3343 10.4657 11.0898 10.2648C10.9572 10.1559 10.8186 10.0542 10.6745 9.96008C10.5807 9.89526 10.4735 9.83044 10.3395 9.74941C9.17061 9.01367 6.84613 9.05581 6.7691 9.05581C6.13272 8.27793 6.17961 5.70769 6.2131 5.16641C6.02588 5.23949 5.84734 5.33186 5.68055 5.44191C5.11947 5.82838 4.59491 6.26223 4.11304 6.73838C3.55991 7.27764 3.05461 7.86093 2.60247 8.48212C1.57215 9.89478 0.841301 11.491 0.452158 13.1786C0.452158 13.2077 -0.130632 15.6159 0.150716 16.8638L0.147374 16.867Z" fill="url(#paint7_radial_2_22)"/>
<path d="M21.6739 10.7477C22.2585 11.3035 22.7592 11.9363 23.161 12.6276C23.2447 12.6884 23.3252 12.7533 23.4021 12.822C27.0329 16.0632 25.1338 20.6397 24.9898 20.9671C27.9406 18.614 29.8263 15.133 29.2602 11.545C27.4482 7.17268 24.3768 5.40949 21.8681 1.57519C21.7409 1.38072 21.6136 1.1895 21.4896 0.982063C21.4193 0.865381 21.3624 0.758423 21.3121 0.657947C21.2088 0.464405 21.129 0.259926 21.0743 0.0486064C21.0745 0.0384689 21.0708 0.0286305 21.064 0.0208912C21.0573 0.0131518 21.0478 0.00802874 21.0375 0.00646973H21.0006C20.3542 0.301416 16.6933 5.93132 21.6739 10.7477Z" fill="url(#paint8_radial_2_22)"/>
<path d="M23.3988 12.8188C23.3219 12.7501 23.2414 12.6852 23.1576 12.6243L23.0571 12.553C21.9303 11.7985 20.5543 11.4751 19.1953 11.6455C24.9562 14.4329 23.4088 24.0365 15.4239 23.6735C14.7135 23.6462 14.0112 23.5162 13.3406 23.2878C13.1832 23.2294 13.0257 23.1678 12.8683 23.0998C12.7779 23.0609 12.6875 23.0187 12.6004 22.9766C13.7157 23.7124 19.2154 25.5079 24.9663 20.9768V20.9574C25.1338 20.6365 27.0329 16.0567 23.3988 12.8188Z" fill="url(#paint9_radial_2_22)"/>
<path d="M8.82897 17.9009C8.82897 17.9009 9.56919 15.2335 14.1243 15.2335C14.6167 15.2335 16.0235 13.9046 16.0503 13.5189C16.077 13.1332 13.1363 14.7019 10.0214 13.292C9.10142 12.8385 8.07656 12.6212 7.04495 12.6609C6.01335 12.7007 5.00957 12.9961 4.12979 13.5189C4.46382 14.2178 5.00003 14.8081 5.67353 15.2182C6.34704 15.6284 7.12896 15.8408 7.92465 15.8298C7.62655 18.3644 9.01319 21.3204 12.3659 22.8696L12.587 22.9766C10.6309 22.0043 9.01654 20.1471 8.81223 17.9009H8.82897Z" fill="url(#paint10_radial_2_22)"/>
<path d="M30.8445 10.7347C30.1478 9.11414 28.7377 7.36392 27.6291 6.80968C28.4176 8.28787 28.9645 9.87545 29.2502 11.5158C29.2494 11.5245 29.2494 11.5331 29.2502 11.5418C27.4382 7.17268 24.3668 5.40949 21.8581 1.57196C21.7308 1.37749 21.6035 1.18625 21.4796 0.978818C21.4093 0.862136 21.3523 0.755178 21.3021 0.654702C21.1988 0.46116 21.119 0.256682 21.0643 0.0453617C21.0644 0.0352242 21.0607 0.0253858 21.054 0.0176464C21.0472 0.00990702 21.0378 0.00479387 21.0274 0.00323486H20.9906C16.9713 2.27205 15.6014 6.505 15.4742 8.615C15.6617 8.615 15.8459 8.58583 16.0368 8.58583C17.4671 8.586 18.8717 8.9533 20.1073 9.65024C21.343 10.3472 22.3655 11.3488 23.0706 12.553C21.9437 11.7984 20.5677 11.4751 19.2087 11.6455C24.9697 14.4329 23.4222 24.0364 15.4373 23.6734C14.7269 23.6462 14.0247 23.5162 13.354 23.2877C13.1966 23.2294 13.0392 23.1678 12.8817 23.0998C12.7913 23.0609 12.7009 23.0187 12.6138 22.9766L12.3827 22.8631L12.6037 22.9701C10.6443 21.9978 9.02659 20.1406 8.82563 17.8945C8.82563 17.8945 9.56585 15.227 14.121 15.227C14.6134 15.227 16.0201 13.8981 16.0469 13.5124C16.0469 13.386 13.2535 12.3132 12.165 11.276C11.5855 10.7218 11.3075 10.456 11.063 10.255C10.9305 10.1462 10.7918 10.0445 10.6477 9.95035C10.2831 8.7139 10.2681 7.40544 10.6042 6.16144C9.12657 6.85431 7.8138 7.8366 6.74902 9.04608C6.11263 8.2682 6.15952 5.69796 6.19302 5.15668C6.0058 5.22976 5.82726 5.32213 5.66047 5.43218C5.09939 5.81865 4.57483 6.2525 4.09296 6.72865C3.54476 7.26637 3.04396 7.84747 2.59578 8.46591C1.56547 9.87857 0.834619 11.4748 0.445477 13.1623L0.425381 13.2661C0.395237 13.4022 0.257916 14.0958 0.241169 14.2384C0.116797 14.9548 0.0373754 15.6778 0.00335569 16.4035V16.4813C-0.0112429 20.3748 1.48869 24.131 4.20499 27.0034C6.92128 29.8757 10.655 31.6537 14.664 31.9841C18.673 32.3145 22.6637 31.173 25.8428 28.7865C29.0219 26.3999 31.1565 22.9432 31.8225 19.1034C31.8493 18.9057 31.8727 18.7047 31.8962 18.5038C32.2253 15.8676 31.8684 13.1937 30.8579 10.725L30.8445 10.7347Z" fill="url(#paint11_linear_2_22)"/>
</g>
<defs>
<linearGradient id="paint0_linear_2_22" x1="28.7243" y1="4.95897" x2="2.97313" y2="30.6349" gradientUnits="userSpaceOnUse">
<stop offset="0.05" stop-color="#FFF44F"/>
<stop offset="0.11" stop-color="#FFE847"/>
<stop offset="0.22" stop-color="#FFC830"/>
<stop offset="0.37" stop-color="#FF980E"/>
<stop offset="0.4" stop-color="#FF8B16"/>
<stop offset="0.46" stop-color="#FF672A"/>
<stop offset="0.53" stop-color="#FF3647"/>
<stop offset="0.7" stop-color="#E31587"/>
</linearGradient>
<radialGradient id="paint1_radial_2_22" cx="0" cy="0" r="1" gradientUnits="userSpaceOnUse" gradientTransform="translate(27.4951 3.55232) scale(33.4 32.3209)">
<stop offset="0.13" stop-color="#FFBD4F"/>
<stop offset="0.19" stop-color="#FFAC31"/>
<stop offset="0.25" stop-color="#FF9D17"/>
<stop offset="0.28" stop-color="#FF980E"/>
<stop offset="0.4" stop-color="#FF563B"/>
<stop offset="0.47" stop-color="#FF3750"/>
<stop offset="0.71" stop-color="#F5156C"/>
<stop offset="0.78" stop-color="#EB0878"/>
<stop offset="0.86" stop-color="#E50080"/>
</radialGradient>
<radialGradient id="paint2_radial_2_22" cx="0" cy="0" r="1" gradientUnits="userSpaceOnUse" gradientTransform="translate(15.2933 16.7665) scale(33.4 32.3209)">
<stop offset="0.3" stop-color="#960E18"/>
<stop offset="0.35" stop-color="#B11927" stop-opacity="0.74"/>
<stop offset="0.43" stop-color="#DB293D" stop-opacity="0.34"/>
<stop offset="0.5" stop-color="#F5334B" stop-opacity="0.09"/>
<stop offset="0.53" stop-color="#FF3750" stop-opacity="0"/>
</radialGradient>
<radialGradient id="paint3_radial_2_22" cx="0" cy="0" r="1" gradientUnits="userSpaceOnUse" gradientTransform="translate(19.3192 -3.78243) scale(24.1959 23.4141)">
<stop offset="0.13" stop-color="#FFF44F"/>
<stop offset="0.25" stop-color="#FFDC3E"/>
<stop offset="0.51" stop-color="#FF9D12"/>
<stop offset="0.53" stop-color="#FF980E"/>
</radialGradient>
<radialGradient id="paint4_radial_2_22" cx="0" cy="0" r="1" gradientUnits="userSpaceOnUse" gradientTransform="translate(11.5989 25.2065) scale(15.9029 15.389)">
<stop offset="0.35" stop-color="#3A8EE6"/>
<stop offset="0.47" stop-color="#5C79F0"/>
<stop offset="0.67" stop-color="#9059FF"/>
<stop offset="1" stop-color="#C139E6"/>
</radialGradient>
<radialGradient id="paint5_radial_2_22" cx="0" cy="0" r="1" gradientUnits="userSpaceOnUse" gradientTransform="translate(15.7728 12.9247) rotate(-13.4648) scale(8.40861 9.59413)">
<stop offset="0.21" stop-color="#9059FF" stop-opacity="0"/>
<stop offset="0.28" stop-color="#8C4FF3" stop-opacity="0.06"/>
<stop offset="0.75" stop-color="#7716A8" stop-opacity="0.45"/>
<stop offset="0.97" stop-color="#6E008B" stop-opacity="0.6"/>
</radialGradient>
<radialGradient id="paint6_radial_2_22" cx="0" cy="0" r="1" gradientUnits="userSpaceOnUse" gradientTransform="translate(14.8713 2.22992) scale(11.4415 11.0718)">
<stop stop-color="#FFE226"/>
<stop offset="0.12" stop-color="#FFDB27"/>
<stop offset="0.3" stop-color="#FFC82A"/>
<stop offset="0.5" stop-color="#FFA930"/>
<stop offset="0.73" stop-color="#FF7E37"/>
<stop offset="0.79" stop-color="#FF7139"/>
</radialGradient>
<radialGradient id="paint7_radial_2_22" cx="0" cy="0" r="1" gradientUnits="userSpaceOnUse" gradientTransform="translate(23.8644 -4.79044) scale(48.8106 47.2335)">
<stop offset="0.11" stop-color="#FFF44F"/>
<stop offset="0.46" stop-color="#FF980E"/>
<stop offset="0.62" stop-color="#FF5634"/>
<stop offset="0.72" stop-color="#FF3647"/>
<stop offset="0.9" stop-color="#E31587"/>
</radialGradient>
<radialGradient id="paint8_radial_2_22" cx="0" cy="0" r="1" gradientUnits="userSpaceOnUse" gradientTransform="translate(19.1439 0.368053) rotate(84.0409) scale(34.4395 23.3664)">
<stop stop-color="#FFF44F"/>
<stop offset="0.06" stop-color="#FFE847"/>
<stop offset="0.17" stop-color="#FFC830"/>
<stop offset="0.3" stop-color="#FF980E"/>
<stop offset="0.36" stop-color="#FF8B16"/>
<stop offset="0.45" stop-color="#FF672A"/>
<stop offset="0.57" stop-color="#FF3647"/>
<stop offset="0.74" stop-color="#E31587"/>
</radialGradient>
<radialGradient id="paint9_radial_2_22" cx="0" cy="0" r="1" gradientUnits="userSpaceOnUse" gradientTransform="translate(14.6 6.33) scale(30.4727 29.4881)">
<stop offset="0.14" stop-color="#FFF44F"/>
<stop offset="0.48" stop-color="#FF980E"/>
<stop offset="0.59" stop-color="#FF5634"/>
<stop offset="0.66" stop-color="#FF3647"/>
<stop offset="0.9" stop-color="#E31587"/>
</radialGradient>
<radialGradient id="paint10_radial_2_22" cx="0" cy="0" r="1" gradientUnits="userSpaceOnUse" gradientTransform="translate(22.6452 8.05753) scale(33.3532 32.2755)">
<stop offset="0.09" stop-color="#FFF44F"/>
<stop offset="0.23" stop-color="#FFE141"/>
<stop offset="0.51" stop-color="#FFAF1E"/>
<stop offset="0.63" stop-color="#FF980E"/>
</radialGradient>
<linearGradient id="paint11_linear_2_22" x1="28.4061" y1="4.82608" x2="6.52065" y2="27.4423" gradientUnits="userSpaceOnUse">
<stop offset="0.17" stop-color="#FFF44F" stop-opacity="0.8"/>
<stop offset="0.27" stop-color="#FFF44F" stop-opacity="0.63"/>
<stop offset="0.49" stop-color="#FFF44F" stop-opacity="0.22"/>
<stop offset="0.6" stop-color="#FFF44F" stop-opacity="0"/>
</linearGradient>
<clipPath id="clip0_2_22">
<rect width="32" height="32" fill="white"/>
</clipPath>
</defs>
</svg>
