<svg width="32" height="32" viewBox="0 0 32 32" fill="none" xmlns="http://www.w3.org/2000/svg">
<path d="M29.9846 16.4114C29.9846 15.3783 29.892 14.3849 29.7197 13.4313H15.9979V19.0671H23.8389C23.5011 20.8883 22.4748 22.4314 20.9317 23.4645V27.1201H25.6403C28.3952 24.5836 29.9846 20.8485 29.9846 16.4114Z" fill="#4285F4"/>
<path d="M15.9979 30.6499C19.9317 30.6499 23.2297 29.3453 25.6403 27.1201L20.9317 23.4645C19.6271 24.3387 17.9582 24.8551 15.9979 24.8551C12.2032 24.8551 8.9913 22.2921 7.84562 18.8485H2.97806V22.6234C5.37541 27.385 10.3026 30.6499 15.9979 30.6499Z" fill="#34A853"/>
<path d="M7.84561 18.8485C7.55422 17.9743 7.38865 17.0406 7.38865 16.0803C7.38865 15.12 7.55422 14.1863 7.84561 13.3121V9.53726H2.97805C1.95819 11.5675 1.42749 13.8083 1.42839 16.0803C1.42839 18.4313 1.99131 20.6565 2.97805 22.6234L7.84561 18.8485Z" fill="#FBBC05"/>
<path d="M15.9979 7.30547C18.137 7.30547 20.0575 8.04058 21.5674 9.48429L25.7462 5.30547C23.2231 2.95449 19.9251 1.51077 15.9979 1.51077C10.3026 1.51077 5.37541 4.77567 2.97806 9.53727L7.84562 13.3121C8.9913 9.8684 12.2032 7.30547 15.9979 7.30547Z" fill="#EA4335"/>
</svg>
