<svg width="32" height="32" viewBox="0 0 32 32" fill="none" xmlns="http://www.w3.org/2000/svg">
<g clip-path="url(#clip0_2_42)">
<path fill-rule="evenodd" clip-rule="evenodd" d="M22.4725 31.2636L22.3924 4.1371C22.1853 3.9544 21.7814 4.00957 21.6233 4.05027L20.5713 4.33792C20.4415 3.96097 20.2729 3.59524 20.0678 3.24526C19.3213 1.98797 18.2303 1.32316 16.9095 1.32135H16.9054C16.8172 1.32135 16.7301 1.32859 16.6419 1.33492L16.6316 1.33582C16.5934 1.29432 16.5538 1.2539 16.5127 1.21461C15.9385 0.671906 15.2001 0.406882 14.3162 0.429496C12.612 0.472911 10.9149 1.56014 9.53778 3.49128C8.56875 4.85078 7.83351 6.55759 7.62331 7.8791L4.26711 8.79718C3.27962 9.07126 3.24887 9.09839 3.11862 9.92059C3.02122 10.5429 0.436127 28.1982 0.436127 28.1982L22.1012 31.5069L22.4725 31.2636ZM15.3745 1.66959C15.0863 1.50225 14.749 1.42446 14.3491 1.4317C11.7178 1.49863 9.42292 5.12847 8.8374 7.54714L11.3579 6.85789L11.8081 6.73488C12.1382 5.19902 12.9668 3.60525 14.0506 2.57953C14.4296 2.21199 14.877 1.90425 15.3735 1.66959H15.3745ZM13.0539 6.39389L16.6716 5.40434C16.6829 4.57219 16.5804 3.34204 16.1087 2.4737C15.6062 2.65642 15.1837 2.97661 14.8802 3.26335C14.0671 4.03491 13.4036 5.21168 13.055 6.39389H13.0539ZM17.8047 5.09499L19.4864 4.6346C19.2178 3.86394 18.5799 2.5723 17.2869 2.35521C17.6889 3.27149 17.7924 4.33249 17.8047 5.09499Z" fill="#95BF47"/>
<path d="M27.3267 6.15509C27.1977 6.14605 24.6934 6.11167 24.6934 6.11167C24.6934 6.11167 22.5986 4.31529 22.3915 4.13168C22.3112 4.0664 22.2097 4.02523 22.1012 4.0141V31.5024L31.4891 29.4409C31.4891 29.4409 27.658 6.56484 27.6334 6.40835C27.6215 6.3419 27.5849 6.28086 27.5291 6.23496C27.4734 6.18905 27.4028 6.16094 27.3267 6.15509Z" fill="#5E8E3E"/>
<path d="M16.8982 10.4235L15.8072 14.0271C15.8072 14.0271 14.591 13.5377 13.1483 13.6183C11.0339 13.7358 11.0113 14.9144 11.0328 15.2102C11.1477 16.8203 15.9477 17.173 16.2174 20.9476C16.4296 23.9171 14.4342 25.9496 11.5589 26.1088C8.10833 26.3014 6.20823 24.5032 6.20823 24.5032L6.93936 21.7553C6.93936 21.7553 8.85177 23.0297 10.3817 22.9438C11.3825 22.8886 11.7394 22.1704 11.7035 21.6621C11.5527 19.561 7.64382 19.6839 7.39668 16.2305C7.18955 13.3225 9.35013 10.3783 14.1194 10.1123C15.9569 10.0092 16.8982 10.4244 16.8982 10.4244" fill="white"/>
</g>
<defs>
<clipPath id="clip0_2_42">
<rect width="32" height="32" fill="white"/>
</clipPath>
</defs>
</svg>
