<svg width="32" height="32" viewBox="0 0 32 32" fill="none" xmlns="http://www.w3.org/2000/svg">
<g clip-path="url(#clip0_2_46)">
<path d="M6.72312 20.2215C6.72312 20.8863 6.52597 21.5363 6.1566 22.0891C5.78722 22.6419 5.26222 23.0727 4.64797 23.3272C4.03373 23.5816 3.35783 23.6482 2.70575 23.5185C2.05367 23.3888 1.4547 23.0686 0.984577 22.5985C0.514454 22.1284 0.194295 21.5294 0.0645883 20.8773C-0.0651184 20.2252 0.00144803 19.5493 0.255877 18.9351C0.510306 18.3208 0.941166 17.7958 1.49397 17.4264C2.04678 17.0571 2.69671 16.8599 3.36156 16.8599H6.72312V20.2215Z" fill="#E01E5A"/>
<path d="M8.41694 20.2215C8.41694 19.33 8.7711 18.4749 9.40152 17.8445C10.0319 17.2141 10.887 16.8599 11.7785 16.8599C12.67 16.8599 13.5251 17.2141 14.1555 17.8445C14.7859 18.4749 15.1401 19.33 15.1401 20.2215V28.6384C15.1401 29.53 14.7859 30.385 14.1555 31.0154C13.5251 31.6458 12.67 32 11.7785 32C10.887 32 10.0319 31.6458 9.40152 31.0154C8.7711 30.385 8.41694 29.53 8.41694 28.6384V20.2215Z" fill="#E01E5A"/>
<path d="M11.7785 6.7231C11.1136 6.7231 10.4637 6.52595 9.91092 6.15657C9.35811 5.7872 8.92725 5.2622 8.67283 4.64795C8.4184 4.0337 8.35182 3.35781 8.48153 2.70573C8.61124 2.05365 8.93139 1.45468 9.40152 0.984552C9.87164 0.514429 10.4706 0.19427 11.1227 0.0645635C11.7748 -0.0651432 12.4507 0.00142323 13.0649 0.255852C13.6792 0.510281 14.2042 0.941141 14.5735 1.49395C14.9429 2.04675 15.1401 2.69668 15.1401 3.36154V6.7231H11.7785Z" fill="#36C5F0"/>
<path d="M11.7785 8.41693C12.67 8.41693 13.5251 8.77109 14.1555 9.40151C14.7859 10.0319 15.1401 10.887 15.1401 11.7785C15.1401 12.67 14.7859 13.5251 14.1555 14.1555C13.5251 14.7859 12.67 15.1401 11.7785 15.1401H3.36156C2.47002 15.1401 1.615 14.7859 0.98458 14.1555C0.354165 13.5251 1.90735e-06 12.67 1.90735e-06 11.7785C1.90735e-06 10.887 0.354165 10.0319 0.98458 9.40151C1.615 8.77109 2.47002 8.41693 3.36156 8.41693H11.7785Z" fill="#36C5F0"/>
<path d="M25.2769 11.7785C25.2769 11.1136 25.474 10.4637 25.8434 9.91091C26.2128 9.35811 26.7378 8.92725 27.352 8.67282C27.9663 8.41839 28.6422 8.35182 29.2942 8.48152C29.9463 8.61123 30.5453 8.93139 31.0154 9.40151C31.4855 9.87163 31.8057 10.4706 31.9354 11.1227C32.0651 11.7748 31.9985 12.4507 31.7441 13.0649C31.4897 13.6792 31.0588 14.2042 30.506 14.5735C29.9532 14.9429 29.3033 15.1401 28.6384 15.1401H25.2769V11.7785Z" fill="#2EB67D"/>
<path d="M23.5831 11.7785C23.5831 12.2199 23.4961 12.6571 23.3272 13.0649C23.1582 13.4728 22.9106 13.8433 22.5985 14.1555C22.2863 14.4676 21.9158 14.7152 21.5079 14.8842C21.1001 15.0531 20.6629 15.1401 20.2215 15.1401C19.7801 15.1401 19.3429 15.0531 18.9351 14.8842C18.5272 14.7152 18.1567 14.4676 17.8445 14.1555C17.5324 13.8433 17.2848 13.4728 17.1158 13.0649C16.9469 12.6571 16.8599 12.2199 16.8599 11.7785V3.36156C16.8599 2.92012 16.9469 2.48299 17.1158 2.07515C17.2848 1.6673 17.5324 1.29673 17.8445 0.984579C18.1567 0.672429 18.5272 0.424813 18.9351 0.255878C19.3429 0.0869441 19.7801 0 20.2215 0C20.6629 0 21.1001 0.0869441 21.5079 0.255878C21.9158 0.424813 22.2863 0.672429 22.5985 0.984579C22.9106 1.29673 23.1582 1.6673 23.3272 2.07515C23.4961 2.48299 23.5831 2.92012 23.5831 3.36156V11.7785Z" fill="#2EB67D"/>
<path d="M20.2215 25.2769C20.8864 25.2769 21.5363 25.474 22.0891 25.8434C22.6419 26.2128 23.0727 26.7378 23.3272 27.352C23.5816 27.9663 23.6482 28.6422 23.5185 29.2943C23.3888 29.9463 23.0686 30.5453 22.5985 31.0154C22.1284 31.4856 21.5294 31.8057 20.8773 31.9354C20.2252 32.0651 19.5493 31.9986 18.9351 31.7441C18.3208 31.4897 17.7958 31.0588 17.4265 30.506C17.0571 29.9532 16.8599 29.3033 16.8599 28.6384V25.2769H20.2215Z" fill="#ECB22E"/>
<path d="M20.2215 23.5831C19.33 23.5831 18.4749 23.2289 17.8445 22.5985C17.2141 21.9681 16.8599 21.113 16.8599 20.2215C16.8599 19.33 17.2141 18.4749 17.8445 17.8445C18.4749 17.2141 19.33 16.8599 20.2215 16.8599H28.6384C29.53 16.8599 30.385 17.2141 31.0154 17.8445C31.6458 18.4749 32 19.33 32 20.2215C32 21.113 31.6458 21.9681 31.0154 22.5985C30.385 23.2289 29.53 23.5831 28.6384 23.5831H20.2215Z" fill="#ECB22E"/>
</g>
<defs>
<clipPath id="clip0_2_46">
<rect width="32" height="32" fill="white"/>
</clipPath>
</defs>
</svg>
