<svg width="32" height="32" viewBox="0 0 32 32" fill="none" xmlns="http://www.w3.org/2000/svg">
<g clip-path="url(#clip0_2_55)">
<path d="M16 0C12.8355 0 9.74205 0.938379 7.11086 2.69648C4.47968 4.45458 2.42891 6.95344 1.21791 9.87706C0.00691021 12.8007 -0.309944 16.0178 0.30742 19.1214C0.924783 22.2251 2.44864 25.0761 4.68628 27.3137C6.92392 29.5514 9.77485 31.0752 12.8785 31.6926C15.9822 32.3099 19.1993 31.9931 22.1229 30.7821C25.0465 29.5711 27.5454 27.5203 29.3035 24.8891C31.0616 22.2579 32 19.1645 32 16C32 11.7565 30.3143 7.68687 27.3137 4.68629C24.3131 1.68571 20.2434 0 16 0ZM23.338 23.0788C23.2002 23.3042 22.9787 23.4658 22.722 23.5281C22.4653 23.5905 22.1943 23.5486 21.9685 23.4115C18.2101 21.1138 13.4816 20.6095 7.91242 21.8704C7.7823 21.9068 7.64614 21.9164 7.5122 21.8987C7.37825 21.8809 7.2493 21.8362 7.13316 21.7671C7.01702 21.698 6.91611 21.6061 6.83655 21.4969C6.75698 21.3877 6.70042 21.2635 6.67028 21.1318C6.64014 21 6.63705 20.8636 6.6612 20.7306C6.68535 20.5977 6.73625 20.4711 6.8108 20.3584C6.88534 20.2457 6.982 20.1493 7.09489 20.075C7.20779 20.0008 7.33458 19.9502 7.46759 19.9265C13.5622 18.5254 18.7916 19.1313 23.0087 21.7093C23.2335 21.8476 23.3944 22.0694 23.4561 22.3261C23.5178 22.5827 23.4753 22.8534 23.338 23.0788ZM25.2959 18.7215C25.2102 18.8612 25.0978 18.9826 24.9652 19.0788C24.8325 19.175 24.6822 19.2442 24.5228 19.2822C24.3634 19.3203 24.198 19.3265 24.0362 19.3006C23.8744 19.2748 23.7192 19.2172 23.5797 19.1313C19.2784 16.4869 12.7215 15.7233 7.63571 17.2679C7.47776 17.3204 7.31089 17.3407 7.14496 17.3277C6.97903 17.3147 6.81739 17.2686 6.66956 17.1921C6.52173 17.1156 6.39071 17.0103 6.28423 16.8824C6.17774 16.7544 6.09794 16.6065 6.04953 16.4473C6.00113 16.288 5.98509 16.1207 6.00237 15.9551C6.01966 15.7896 6.06991 15.6292 6.15016 15.4834C6.23042 15.3375 6.33906 15.2093 6.46967 15.1061C6.60029 15.0029 6.75022 14.927 6.91066 14.8827C12.7215 13.1313 19.9474 13.972 24.8826 17.0088C25.1644 17.1813 25.3661 17.4585 25.4436 17.7797C25.5211 18.1008 25.468 18.4395 25.2959 18.7215ZM25.4641 14.1681C20.3082 11.1068 11.8038 10.8231 6.87565 12.3187C6.68752 12.3758 6.48999 12.3952 6.29436 12.3759C6.09872 12.3566 5.9088 12.299 5.73544 12.2063C5.56209 12.1136 5.40869 11.9876 5.284 11.8356C5.15931 11.6837 5.06578 11.5086 5.00874 11.3205C4.9517 11.1324 4.93229 10.9348 4.95159 10.7392C4.97088 10.5436 5.02853 10.3536 5.12122 10.1803C5.21392 10.0069 5.33985 9.85353 5.49183 9.72884C5.64381 9.60416 5.81886 9.51062 6.00699 9.45359C11.6602 7.7373 21.0683 8.05254 26.9912 11.5937C27.1603 11.694 27.3079 11.8266 27.4257 11.9839C27.5435 12.1412 27.6291 12.3202 27.6778 12.5106C27.7264 12.7011 27.737 12.8992 27.7091 13.0938C27.6811 13.2883 27.6151 13.4754 27.5149 13.6445C27.4146 13.8135 27.282 13.9612 27.1247 14.079C26.9673 14.1967 26.7884 14.2824 26.5979 14.331C26.4075 14.3797 26.2093 14.3903 26.0148 14.3623C25.8202 14.3344 25.6331 14.2684 25.4641 14.1681Z" fill="#1ED760"/>
</g>
<defs>
<clipPath id="clip0_2_55">
<rect width="32" height="32" fill="white"/>
</clipPath>
</defs>
</svg>
