<svg width="32" height="32" viewBox="0 0 32 32" fill="none" xmlns="http://www.w3.org/2000/svg">
<mask id="mask0_2_63" style="mask-type:luminance" maskUnits="userSpaceOnUse" x="0" y="0" width="32" height="32">
<path d="M31.8066 16.032C31.8066 7.25397 24.6906 0.13797 15.9125 0.13797C7.1345 0.13797 0.0184956 7.25397 0.0184956 16.032C0.0184956 24.81 7.1345 31.9261 15.9125 31.9261C24.6906 31.9261 31.8066 24.81 31.8066 16.032Z" fill="white"/>
</mask>
<g mask="url(#mask0_2_63)">
<path d="M31.8065 28.7472C31.8065 30.4956 30.3761 31.926 28.6277 31.926H3.19731C1.44896 31.926 0.0184956 30.4956 0.0184956 28.7472V3.31677C0.0184956 1.56843 1.44896 0.13797 3.19731 0.13797H28.6277C30.3761 0.13797 31.8065 1.56843 31.8065 3.31677V28.7472Z" fill="#1AB7EA"/>
<path d="M26.7734 10.7075C26.6674 12.9327 25.1045 16.0055 22.0847 19.8996C18.9589 23.9525 16.3099 25.9923 14.1642 25.9923C12.8132 25.9923 11.7006 24.7472 10.7735 22.2837C10.1642 20.0055 9.52843 17.7539 8.91916 15.4757C8.23042 13.0121 7.4887 11.7671 6.694 11.7671C6.53506 11.7671 5.92579 12.138 4.89267 12.8532L3.80658 11.4492C4.94565 10.4426 6.05824 9.46246 7.17082 8.45584C8.68075 7.15783 9.81983 6.46909 10.588 6.38962C12.3629 6.23068 13.4755 7.44922 13.8993 10.0452C14.3496 12.8797 14.6675 14.628 14.8264 15.3168C15.3298 17.6479 15.9125 18.8399 16.5218 18.8399C16.9986 18.8399 17.7139 18.0717 18.694 16.5618C19.6476 15.0519 20.1774 13.8863 20.2304 13.0916C20.3629 11.7936 19.8596 11.1313 18.694 11.1313C18.1377 11.1313 17.5814 11.2638 16.9986 11.5022C18.1377 7.79359 20.2834 6.01876 23.4621 6.12472C25.7933 6.1777 26.9059 7.71412 26.7734 10.7075Z" fill="white"/>
</g>
</svg>
