<svg width="32" height="32" viewBox="0 0 32 32" fill="none" xmlns="http://www.w3.org/2000/svg">
<g clip-path="url(#clip0_2_64)">
<path d="M30.8679 3.39046L24.2798 0.199469C23.9075 0.0191482 23.4886 -0.0402616 23.0812 0.0294741C22.6738 0.0992099 22.2981 0.294638 22.006 0.588691L0.434936 20.3716C0.298018 20.4973 0.188665 20.6503 0.113839 20.8209C0.039014 20.9914 0.000362396 21.1759 0.000362396 21.3623C0.000362396 21.5488 0.039014 21.7332 0.113839 21.9038C0.188665 22.0743 0.298018 22.2274 0.434936 22.3531L2.19708 23.9614C2.42723 24.1718 2.72324 24.2947 3.03392 24.3088C3.3446 24.3229 3.65042 24.2273 3.89846 24.0386L29.8765 4.21716C30.0729 4.06748 30.307 3.97591 30.5523 3.95276C30.7977 3.9296 31.0446 3.97578 31.2653 4.0861C31.4859 4.19641 31.6716 4.36648 31.8014 4.57717C31.9312 4.78787 32 5.03082 32 5.27868V5.20148C31.9999 4.82303 31.8936 4.45231 31.6933 4.13194C31.493 3.81157 31.2069 3.55455 30.8679 3.39046Z" fill="#0065A9"/>
<path d="M30.8679 28.6096L24.2798 31.8006C23.9075 31.9809 23.4886 32.0403 23.0812 31.9705C22.6738 31.9008 22.2981 31.7054 22.006 31.4113L0.434936 11.6285C0.298018 11.5028 0.188665 11.3497 0.113839 11.1792C0.039014 11.0086 0.000362396 10.8242 0.000362396 10.6377C0.000362396 10.4513 0.039014 10.2669 0.113839 10.0963C0.188665 9.92568 0.298018 9.77265 0.434936 9.64696L2.19708 8.0386C2.42723 7.82821 2.72324 7.70534 3.03392 7.69124C3.3446 7.67715 3.65042 7.77271 3.89846 7.9614L29.8765 27.7829C30.0729 27.9325 30.307 28.0241 30.5523 28.0473C30.7977 28.0704 31.0446 28.0243 31.2653 27.9139C31.4859 27.8036 31.6716 27.6335 31.8014 27.4229C31.9312 27.2122 32 26.9692 32 26.7214V26.7986C31.9999 27.177 31.8936 27.5477 31.6933 27.8681C31.493 28.1885 31.2069 28.4455 30.8679 28.6096Z" fill="#007ACC"/>
<path d="M24.2798 31.8038C23.9075 31.9841 23.4886 32.0435 23.0812 31.9738C22.6738 31.904 22.2981 31.7086 22.006 31.4146C22.1697 31.5795 22.3784 31.6918 22.6056 31.7373C22.8328 31.7829 23.0684 31.7596 23.2824 31.6703C23.4964 31.5811 23.6793 31.43 23.8079 31.2362C23.9365 31.0423 24.0051 30.8145 24.0048 30.5814V1.41859C24.0051 1.18555 23.9365 0.957672 23.8079 0.763826C23.6793 0.569981 23.4964 0.418889 23.2824 0.329674C23.0684 0.24046 22.8328 0.217142 22.6056 0.262676C22.3784 0.308209 22.1697 0.420538 22.006 0.585448C22.2981 0.291395 22.6738 0.0959769 23.0812 0.0262411C23.4886 -0.0434947 23.9075 0.0159053 24.2798 0.196227L30.8679 3.384C31.2069 3.5481 31.493 3.8051 31.6933 4.12548C31.8936 4.44585 31.9999 4.81658 32 5.19502V26.8018C31.9999 27.1802 31.8936 27.5509 31.6933 27.8713C31.493 28.1917 31.2069 28.4487 30.8679 28.6128L24.2798 31.8038Z" fill="#1F9CF0"/>
<g opacity="0.25">
<path d="M22.6776 31.8649C22.9338 31.9666 23.2082 32.0137 23.4835 32.0032C23.7588 31.9927 24.0288 31.9248 24.2766 31.8038L30.8615 28.616C31.2005 28.4519 31.4866 28.1949 31.6869 27.8745C31.8872 27.5542 31.9935 27.1834 31.9936 26.805V5.19502C31.9935 4.81658 31.8872 4.44585 31.6869 4.12547C31.4866 3.8051 31.2005 3.54809 30.8615 3.384L24.2766 0.196222C23.9048 0.016164 23.4864 -0.0430994 23.0796 0.0266393C22.6728 0.0963779 22.2976 0.291662 22.006 0.585443L9.40236 12.1657L3.91126 7.98392C3.66345 7.79463 3.35752 7.69869 3.04667 7.7128C2.73582 7.7269 2.43973 7.85016 2.20988 8.06112L0.447731 9.66949C0.310813 9.79518 0.20145 9.9482 0.126625 10.1188C0.0517993 10.2894 0.0131575 10.4738 0.0131575 10.6602C0.0131575 10.8467 0.0517993 11.0311 0.126625 11.2017C0.20145 11.3723 0.310813 11.5253 0.447731 11.651L5.19688 16L0.434936 20.3683C0.298018 20.494 0.188665 20.647 0.113839 20.8176C0.039014 20.9882 0.000362396 21.1726 0.000362396 21.3591C0.000362396 21.5455 0.039014 21.7299 0.113839 21.9005C0.188665 22.0711 0.298018 22.2241 0.434936 22.3498L2.19708 23.9582C2.42693 24.1691 2.72304 24.2924 3.03388 24.3065C3.34473 24.3206 3.65066 24.2247 3.89846 24.0354L9.38956 19.8536L21.9932 31.4339C22.1896 31.6231 22.4226 31.7698 22.6776 31.8649ZM23.9888 8.70447L14.4265 16L23.9952 23.302L23.9888 8.70447Z" fill="url(#paint0_linear_2_64)"/>
</g>
</g>
<defs>
<linearGradient id="paint0_linear_2_64" x1="15.9904" y1="4.06384e-06" x2="15.9904" y2="32" gradientUnits="userSpaceOnUse">
<stop stop-color="white"/>
<stop offset="1" stop-color="white" stop-opacity="0"/>
</linearGradient>
<clipPath id="clip0_2_64">
<rect width="32" height="32" fill="white"/>
</clipPath>
</defs>
</svg>
