<svg width="32" height="32" viewBox="0 0 32 32" fill="none" xmlns="http://www.w3.org/2000/svg">
<g clip-path="url(#clip0_2_71)">
<mask id="mask0_2_71" style="mask-type:luminance" maskUnits="userSpaceOnUse" x="0" y="0" width="32" height="32">
<path d="M32 16C32 7.16344 24.8366 0 16 0C7.16344 0 0 7.16344 0 16C0 24.8366 7.16344 32 16 32C24.8366 32 32 24.8366 32 16Z" fill="white"/>
</mask>
<g mask="url(#mask0_2_71)">
<path d="M10.566 1.72722e-06H21.434C22.8218 -0.000791968 24.196 0.271962 25.4784 0.802675C26.7607 1.33339 27.9257 2.11166 28.9071 3.09295C29.8884 4.07426 30.6667 5.23937 31.1974 6.52166C31.7281 7.80393 32.0008 9.17826 32 10.566V21.434C32.0008 22.8218 31.7281 24.196 31.1974 25.4784C30.6667 26.7607 29.8884 27.9257 28.9071 28.9071C27.9257 29.8884 26.7607 30.6667 25.4784 31.1974C24.196 31.7281 22.8218 32.0008 21.434 32H10.566C9.17826 32.0008 7.80393 31.7281 6.52166 31.1974C5.23937 30.6667 4.07426 29.8884 3.09295 28.9071C2.11166 27.9257 1.33339 26.7607 0.802675 25.4784C0.271962 24.196 -0.000791968 22.8218 1.72722e-06 21.434V10.566C-0.000791968 9.17826 0.271962 7.80393 0.802675 6.52166C1.33339 5.23937 2.11166 4.07426 3.09295 3.09295C4.07426 2.11166 5.23937 1.33339 6.52166 0.802675C7.80393 0.271962 9.17826 -0.000791968 10.566 1.72722e-06Z" fill="url(#paint0_linear_2_71)"/>
<path d="M21.5829 18.9303L23.2292 20.3009C23.6317 20.637 23.833 20.806 23.996 20.8443C24.1574 20.8839 24.3276 20.867 24.4782 20.7964C24.6287 20.7257 24.7505 20.6056 24.8231 20.4558C24.8956 20.3049 24.8956 20.0533 24.8956 19.518V12.4739C24.8956 11.9487 24.8956 11.687 24.8231 11.5361C24.7505 11.3865 24.6287 11.2662 24.4782 11.1955C24.3276 11.1249 24.1574 11.108 23.996 11.1477C23.833 11.1879 23.6317 11.3489 23.2292 11.6911L21.5829 13.0616C21.3999 13.2015 21.2291 13.3563 21.0717 13.5245C20.8557 13.7802 20.7112 14.0885 20.6531 14.4181C20.6245 14.6463 20.615 14.8766 20.6249 15.1064V16.8815C20.615 17.1113 20.6245 17.3416 20.6531 17.5698C20.7112 17.8994 20.8557 18.2077 21.0717 18.4634C21.2289 18.633 21.3997 18.7892 21.5829 18.9303Z" fill="white"/>
<path d="M7.1044 12.9026C7.1044 12.2445 7.1044 11.9145 7.2332 11.6629C7.34637 11.4412 7.5267 11.2608 7.74842 11.1477C8 11.0189 8.33006 11.0189 8.98817 11.0189H14.9937C16.7185 11.0189 17.5819 11.0189 18.24 11.355C18.8194 11.6508 19.2906 12.122 19.5864 12.7014C19.9225 13.3595 19.9225 14.2229 19.9225 15.9457V19.0974C19.9225 19.7555 19.9225 20.0855 19.7937 20.3371C19.6805 20.5589 19.5002 20.7392 19.2785 20.8523C19.0269 20.9811 18.6969 20.9811 18.0387 20.9811H12.0312C10.3064 20.9811 9.44302 20.9811 8.7849 20.645C8.20552 20.3492 7.73434 19.878 7.43849 19.2986C7.10239 18.6405 7.10239 17.7771 7.10239 16.0543L7.1044 12.9026Z" fill="white"/>
</g>
</g>
<defs>
<linearGradient id="paint0_linear_2_71" x1="16" y1="1.72721e-06" x2="16" y2="32" gradientUnits="userSpaceOnUse">
<stop stop-color="#57A3FF"/>
<stop offset="1" stop-color="#3C82FB"/>
</linearGradient>
<clipPath id="clip0_2_71">
<rect width="32" height="32" fill="white"/>
</clipPath>
</defs>
</svg>
