<?xml version="1.0" encoding="utf-8"?>
<svg xmlns="http://www.w3.org/2000/svg" viewBox="0 0 500 500">
  <ellipse style="fill: rgb(255, 230, 35); stroke: rgb(0, 0, 0); stroke-width: 0px;" cx="249.311" cy="244.876" rx="234.279" ry="230.323"/>
  <path d="M 239.158 190.362 C 241.85533333333333 190.362 243.883 189.02666666666667 245.241 186.356 L 247.374 187.423 C 246.58133333333333 189.08166666666668 245.46733333333333 190.344 244.032 191.21 C 242.596 192.07533333333333 240.92999999999998 192.508 239.034 192.508 C 237.084 192.508 235.407 192.10266666666666 234.003 191.292 C 232.59966666666665 190.48066666666665 231.522 189.32533333333333 230.77 187.826 C 230.018 186.32666666666665 229.642 184.556 229.642 182.514 C 229.642 180.46333333333334 230.01566666666668 178.70433333333332 230.763 177.237 C 231.51033333333334 175.76966666666667 232.58599999999998 174.644 233.99 173.86 C 235.39333333333335 173.076 237.07033333333334 172.684 239.021 172.684 C 241.07166666666666 172.684 242.785 173.085 244.161 173.887 C 245.53766666666667 174.689 246.54966666666667 175.87866666666667 247.197 177.456 L 244.722 178.276 C 244.27533333333332 177.15466666666666 243.55766666666665 176.298 242.569 175.706 C 241.57966666666667 175.11333333333334 240.406 174.817 239.048 174.817 C 236.91533333333334 174.817 235.25666666666666 175.50300000000001 234.072 176.875 C 232.88666666666668 178.24633333333333 232.294 180.126 232.294 182.514 C 232.294 184.08200000000002 232.57433333333333 185.45600000000002 233.135 186.636 C 233.69566666666665 187.81666666666666 234.48866666666666 188.73266666666666 235.514 189.384 C 236.53933333333333 190.036 237.754 190.362 239.158 190.362 Z" transform="matrix(16.335564, 0, 0, 14.660472, -3655.605225, -2434.994141)" style="fill: rgb(5, 91, 70); stroke-width: 0px; text-wrap-mode: nowrap;"/>
</svg>