<?xml version="1.0" encoding="utf-8"?>
<svg xmlns="http://www.w3.org/2000/svg" viewBox="0 0 500 500">
  <ellipse style="stroke: rgb(0, 0, 0); stroke-width: 0px; fill: rgb(255, 209, 46);" cx="249.311" cy="244.876" rx="234.279" ry="230.323"/>
  <path fill="#ffffff" d="M 110.3 133.935 C 92.925 133.935 78.829 148.118 78.829 165.6 C 78.829 175.561 83.484 184.929 91.417 190.932 L 234.085 298.594 C 241.56 304.202 251.788 304.202 259.262 298.594 L 401.93 190.932 C 409.863 184.929 414.518 175.561 414.518 165.6 C 414.518 148.118 400.422 133.935 383.047 133.935 L 110.3 133.935 Z M 78.829 207.82 L 78.829 345.037 C 78.829 368.324 97.646 387.257 120.79 387.257 L 372.557 387.257 C 395.701 387.257 414.518 368.324 414.518 345.037 L 414.518 207.82 L 271.85 315.483 C 256.902 326.763 236.445 326.763 221.496 315.483 L 78.829 207.82 Z" style=""/>
</svg>