<?xml version="1.0" encoding="utf-8"?>
<svg xmlns="http://www.w3.org/2000/svg" viewBox="0 0 500 500">
  <ellipse style="stroke: rgb(0, 0, 0); stroke-width: 0px; fill: rgb(162, 90, 255);" cx="249.311" cy="244.876" rx="234.279" ry="230.323"/>
  <path fill="#fcfcfc" d="M 195.08 97.613 C 190.457 86.388 178.268 80.414 166.62 83.612 L 113.781 98.096 C 103.334 100.994 96.069 110.529 96.069 121.392 C 96.069 270.7 216.515 391.765 365.064 391.765 C 375.871 391.765 385.358 384.463 388.24 373.962 L 402.65 320.853 C 405.833 309.145 399.888 296.893 388.72 292.246 L 331.079 268.106 C 321.292 264.002 309.944 266.838 303.279 275.107 L 279.021 304.86 C 236.75 284.763 202.525 250.362 182.531 207.876 L 212.132 183.554 C 220.359 176.794 223.18 165.448 219.098 155.611 L 195.08 97.674 L 195.08 97.613 Z" style="transform-box: fill-box; transform-origin: 50% 50%;" transform="matrix(0.999993, 0.003771, -0.003771, 0.999993, 0, 0)"/>
</svg>