<?xml version="1.0" encoding="utf-8"?>
<svg xmlns="http://www.w3.org/2000/svg" viewBox="0 0 500 500">
  <text style="fill: rgb(255, 255, 255); font-family: &quot;Gill Sans MT&quot;; font-size: 52px; letter-spacing: 0.3px; text-anchor: middle; word-spacing: 6.7px; white-space: pre;" transform="matrix(1, 0, 0, 1, 63.446972, 41.666668)"><tspan style="font-family: &quot;MV Boli&quot;; font-weight: 700;" x="166.667" y="158.144">All research</tspan><tspan x="166.667" dy="1.1em">​</tspan><tspan style="font-family: &quot;MV Boli&quot;; font-weight: 700;">start from here</tspan><tspan> </tspan></text>
  <text style="white-space: pre; fill: rgb(51, 51, 51); font-family: Arial, sans-serif; font-size: 28px;" x="826.705" y="148.674">Escriba aquí su texto</text>
  <path stroke-width="0" d="M 240.686 282.826 C 242.002 282.637 244.511 282.5 245.894 285.193 C 249.316 291.854 245.241 325.917 249.682 340.117 C 253.205 351.384 259.736 359.64 266.254 366.159 C 272.087 371.994 278.321 375.247 286.14 378.47 C 295.021 382.131 305.542 384.561 317.39 386.045 C 331.222 387.779 350.827 388.964 364.739 386.992 C 375.193 385.511 388.054 377.974 394.391 376.665 C 397.93 374.169 402.447 371.583 405.839 370.127 C 396.13 363.721 372.935 360.794 369.277 357.163 C 367.427 355.326 367.986 353.65 368.33 352.428 C 368.627 351.373 368.786 350.077 370.698 350.061 C 376.386 350.011 412.76 363.578 417.573 370.42 C 420.225 374.191 418.488 376.212 415.679 381.784 C 409.677 393.687 375.708 436.822 367.857 441.917 C 365.181 443.653 363.517 442.785 362.649 441.917 C 361.781 441.049 361.89 438.561 362.649 436.708 C 363.662 434.234 368.337 430.179 369.751 428.659 C 370.474 427.881 370.15 428.479 371.171 427.239 C 374.839 422.783 404.982 394.081 409.541 379.631 C 404.528 382.956 394.188 387.713 391.254 386.992 C 391.206 386.98 391.159 386.967 391.112 386.953 C 384.245 390.06 374.585 393.221 367.58 394.568 C 355.983 396.799 343.92 395.895 330.648 394.568 C 315.76 393.08 295.85 390.814 282.352 385.098 C 270.355 380.018 259.292 371.823 252.523 363.792 C 246.714 356.9 244.504 351.124 242.106 341.064 C 238.795 327.175 236.788 291.591 238.318 285.193 C 238.814 283.12 239.623 282.978 240.686 282.826 Z" style="stroke-width: 2px; fill: rgb(255, 255, 255); stroke: rgb(255, 255, 255);"/>
</svg>