<?xml version="1.0" encoding="utf-8"?>
<svg xmlns="http://www.w3.org/2000/svg" viewBox="0 0 500 500">
  <ellipse style="stroke: rgb(0, 0, 0); stroke-width: 0px; fill: rgb(255, 77, 0);" cx="249.311" cy="244.876" rx="234.279" ry="230.323"/>
  <path fill="#ffffff" d="M 95.576 172.006 C 95.576 152.723 110.892 137.046 129.73 137.046 L 266.346 137.046 C 285.184 137.046 300.499 152.723 300.499 172.006 L 300.499 311.849 C 300.499 331.132 285.184 346.809 266.346 346.809 L 129.73 346.809 C 110.892 346.809 95.576 331.132 95.576 311.849 L 95.576 172.006 Z M 393.942 156.602 C 399.492 159.661 402.961 165.561 402.961 172.006 L 402.961 311.849 C 402.961 318.295 399.492 324.194 393.942 327.253 C 388.392 330.312 381.668 329.984 376.385 326.378 L 325.155 291.419 L 317.577 286.229 L 317.577 276.888 L 317.577 206.968 L 317.577 197.626 L 325.155 192.437 L 376.385 157.476 C 381.615 153.926 388.339 153.543 393.942 156.602 Z" style=""/>
</svg>